<?xml version="1.0" encoding="UTF-8" standalone="no"?>
<!DOCTYPE svg PUBLIC "-//W3C//DTD SVG 1.1//EN"
 "http://www.w3.org/Graphics/SVG/1.1/DTD/svg11.dtd">
<!-- Generated by graphviz version 2.36.0 (20140111.2315)
 -->
<!-- Title: %3 Pages: 1 -->
<svg width="1209pt" height="786pt"
 viewBox="0.00 0.00 1209.00 786.00" xmlns="http://www.w3.org/2000/svg" xmlns:xlink="http://www.w3.org/1999/xlink">
<g id="graph0" class="graph" transform="scale(1 1) rotate(0) translate(4 782)">
<title>%3</title>
<polygon fill="white" stroke="none" points="-4,4 -4,-782 1205,-782 1205,4 -4,4"/>
<!-- struct1 -->
<g id="node1" class="node"><title>struct1</title>
<polygon fill="none" stroke="cornflowerblue" points="0,-741 0,-777 706,-777 706,-741 0,-741"/>
<text text-anchor="middle" x="48" y="-755.3" font-family="Times,serif" font-size="14.00">[1] 0x804c180</text>
<polyline fill="none" stroke="cornflowerblue" points="96,-741 96,-777 "/>
<text text-anchor="middle" x="134" y="-755.3" font-family="Times,serif" font-size="14.00">0x804c1c0</text>
<polyline fill="none" stroke="cornflowerblue" points="172,-741 172,-777 "/>
<text text-anchor="middle" x="210" y="-755.3" font-family="Times,serif" font-size="14.00">0x804c1c4</text>
<polyline fill="none" stroke="cornflowerblue" points="248,-741 248,-777 "/>
<text text-anchor="middle" x="286" y="-755.3" font-family="Times,serif" font-size="14.00">0x804c1c8</text>
<polyline fill="none" stroke="cornflowerblue" points="324,-741 324,-777 "/>
<text text-anchor="middle" x="361.5" y="-755.3" font-family="Times,serif" font-size="14.00">0x804c1cc</text>
<polyline fill="none" stroke="cornflowerblue" points="399,-741 399,-777 "/>
<text text-anchor="middle" x="437.5" y="-755.3" font-family="Times,serif" font-size="14.00">0x804c1d0</text>
<polyline fill="none" stroke="cornflowerblue" points="476,-741 476,-777 "/>
<text text-anchor="middle" x="514.5" y="-755.3" font-family="Times,serif" font-size="14.00">0x804c1d4</text>
<polyline fill="none" stroke="cornflowerblue" points="553,-741 553,-777 "/>
<text text-anchor="middle" x="591.5" y="-755.3" font-family="Times,serif" font-size="14.00">0x804c1d8</text>
<polyline fill="none" stroke="cornflowerblue" points="630,-741 630,-777 "/>
<text text-anchor="middle" x="668" y="-755.3" font-family="Times,serif" font-size="14.00">0x804c1dc</text>
</g>
<!-- struct2 -->
<g id="node2" class="node"><title>struct2</title>
<polygon fill="none" stroke="cornflowerblue" points="578.5,-667 578.5,-703 1127.5,-703 1127.5,-667 578.5,-667"/>
<text text-anchor="middle" x="626" y="-681.3" font-family="Times,serif" font-size="14.00">[2] 0x8dcc008</text>
<polyline fill="none" stroke="cornflowerblue" points="673.5,-667 673.5,-703 "/>
<text text-anchor="middle" x="711.5" y="-681.3" font-family="Times,serif" font-size="14.00">0x8dcc008</text>
<polyline fill="none" stroke="cornflowerblue" points="749.5,-667 749.5,-703 "/>
<text text-anchor="middle" x="787" y="-681.3" font-family="Times,serif" font-size="14.00">0x8dcc00c</text>
<polyline fill="none" stroke="cornflowerblue" points="824.5,-667 824.5,-703 "/>
<text text-anchor="middle" x="862.5" y="-681.3" font-family="Times,serif" font-size="14.00">0x8dcc010</text>
<polyline fill="none" stroke="cornflowerblue" points="900.5,-667 900.5,-703 "/>
<text text-anchor="middle" x="938.5" y="-681.3" font-family="Times,serif" font-size="14.00">0x8dcc014</text>
<polyline fill="none" stroke="cornflowerblue" points="976.5,-667 976.5,-703 "/>
<text text-anchor="middle" x="1014.5" y="-681.3" font-family="Times,serif" font-size="14.00">0x8dcc018</text>
<polyline fill="none" stroke="cornflowerblue" points="1052.5,-667 1052.5,-703 "/>
<text text-anchor="middle" x="1090" y="-681.3" font-family="Times,serif" font-size="14.00">0x8dcc01c</text>
</g>
<!-- struct1&#45;&gt;struct2 -->
<g id="edge1" class="edge"><title>struct1:z134529496&#45;&gt;struct2:z148684808</title>
<path fill="none" stroke="maroon" d="M592,-740C592,-740 672.841,-715.544 701.262,-706.946"/>
<polygon fill="maroon" stroke="maroon" points="702.442,-710.246 711,-704 700.415,-703.546 702.442,-710.246"/>
</g>
<!-- struct11 -->
<g id="node3" class="node"><title>struct11</title>
<polygon fill="none" stroke="cornflowerblue" points="427,-1 427,-37 979,-37 979,-1 427,-1"/>
<text text-anchor="middle" x="478" y="-15.3" font-family="Times,serif" font-size="14.00">[11] 0x8dcc2d8</text>
<polyline fill="none" stroke="cornflowerblue" points="529,-1 529,-37 "/>
<text text-anchor="middle" x="567" y="-15.3" font-family="Times,serif" font-size="14.00">0x8dcc2d8</text>
<polyline fill="none" stroke="cornflowerblue" points="605,-1 605,-37 "/>
<text text-anchor="middle" x="642.5" y="-15.3" font-family="Times,serif" font-size="14.00">0x8dcc2dc</text>
<polyline fill="none" stroke="cornflowerblue" points="680,-1 680,-37 "/>
<text text-anchor="middle" x="717.5" y="-15.3" font-family="Times,serif" font-size="14.00">0x8dcc2e0</text>
<polyline fill="none" stroke="cornflowerblue" points="755,-1 755,-37 "/>
<text text-anchor="middle" x="792.5" y="-15.3" font-family="Times,serif" font-size="14.00">0x8dcc2e4</text>
<polyline fill="none" stroke="cornflowerblue" points="830,-1 830,-37 "/>
<text text-anchor="middle" x="867.5" y="-15.3" font-family="Times,serif" font-size="14.00">0x8dcc2e8</text>
<polyline fill="none" stroke="cornflowerblue" points="905,-1 905,-37 "/>
<text text-anchor="middle" x="942" y="-15.3" font-family="Times,serif" font-size="14.00">0x8dcc2ec</text>
</g>
<!-- struct1&#45;&gt;struct11 -->
<g id="edge2" class="edge"><title>struct1:z134529500&#45;&gt;struct11:z148685528</title>
<path fill="none" stroke="maroon" d="M665.503,-740.708C651.969,-641.543 587.395,-168.431 570.863,-47.301"/>
<polygon fill="maroon" stroke="maroon" points="574.32,-46.7501 569.5,-37.3153 567.384,-47.6968 574.32,-46.7501"/>
</g>
<!-- struct3 -->
<g id="node4" class="node"><title>struct3</title>
<polygon fill="none" stroke="cornflowerblue" points="616.5,-593 616.5,-629 1165.5,-629 1165.5,-593 616.5,-593"/>
<text text-anchor="middle" x="664" y="-607.3" font-family="Times,serif" font-size="14.00">[3] 0x8dcc058</text>
<polyline fill="none" stroke="cornflowerblue" points="711.5,-593 711.5,-629 "/>
<text text-anchor="middle" x="749.5" y="-607.3" font-family="Times,serif" font-size="14.00">0x8dcc058</text>
<polyline fill="none" stroke="cornflowerblue" points="787.5,-593 787.5,-629 "/>
<text text-anchor="middle" x="825" y="-607.3" font-family="Times,serif" font-size="14.00">0x8dcc05c</text>
<polyline fill="none" stroke="cornflowerblue" points="862.5,-593 862.5,-629 "/>
<text text-anchor="middle" x="900.5" y="-607.3" font-family="Times,serif" font-size="14.00">0x8dcc060</text>
<polyline fill="none" stroke="cornflowerblue" points="938.5,-593 938.5,-629 "/>
<text text-anchor="middle" x="976.5" y="-607.3" font-family="Times,serif" font-size="14.00">0x8dcc064</text>
<polyline fill="none" stroke="cornflowerblue" points="1014.5,-593 1014.5,-629 "/>
<text text-anchor="middle" x="1052.5" y="-607.3" font-family="Times,serif" font-size="14.00">0x8dcc068</text>
<polyline fill="none" stroke="cornflowerblue" points="1090.5,-593 1090.5,-629 "/>
<text text-anchor="middle" x="1128" y="-607.3" font-family="Times,serif" font-size="14.00">0x8dcc06c</text>
</g>
<!-- struct2&#45;&gt;struct3 -->
<g id="edge3" class="edge"><title>struct2:z148684812&#45;&gt;struct3:z148684888</title>
<path fill="none" stroke="maroon" d="M787,-666C787,-666 767.369,-647.402 756.327,-636.941"/>
<polygon fill="maroon" stroke="maroon" points="758.667,-634.337 749,-630 753.852,-639.418 758.667,-634.337"/>
</g>
<!-- struct10 -->
<g id="node11" class="node"><title>struct10</title>
<polygon fill="none" stroke="cornflowerblue" points="578,-75 578,-111 1134,-111 1134,-75 578,-75"/>
<text text-anchor="middle" x="629" y="-89.3" font-family="Times,serif" font-size="14.00">[10] 0x8dcc288</text>
<polyline fill="none" stroke="cornflowerblue" points="680,-75 680,-111 "/>
<text text-anchor="middle" x="718" y="-89.3" font-family="Times,serif" font-size="14.00">0x8dcc288</text>
<polyline fill="none" stroke="cornflowerblue" points="756,-75 756,-111 "/>
<text text-anchor="middle" x="793.5" y="-89.3" font-family="Times,serif" font-size="14.00">0x8dcc28c</text>
<polyline fill="none" stroke="cornflowerblue" points="831,-75 831,-111 "/>
<text text-anchor="middle" x="869" y="-89.3" font-family="Times,serif" font-size="14.00">0x8dcc290</text>
<polyline fill="none" stroke="cornflowerblue" points="907,-75 907,-111 "/>
<text text-anchor="middle" x="945" y="-89.3" font-family="Times,serif" font-size="14.00">0x8dcc294</text>
<polyline fill="none" stroke="cornflowerblue" points="983,-75 983,-111 "/>
<text text-anchor="middle" x="1021" y="-89.3" font-family="Times,serif" font-size="14.00">0x8dcc298</text>
<polyline fill="none" stroke="cornflowerblue" points="1059,-75 1059,-111 "/>
<text text-anchor="middle" x="1096.5" y="-89.3" font-family="Times,serif" font-size="14.00">0x8dcc29c</text>
</g>
<!-- struct11&#45;&gt;struct10 -->
<g id="edge20" class="edge"><title>struct11:z148685536&#45;&gt;struct10:z148685448</title>
<path fill="none" stroke="maroon" d="M718,-38C718,-38 718,-53.137 718,-63.7801"/>
<polygon fill="maroon" stroke="maroon" points="714.5,-64 718,-74 721.5,-64 714.5,-64"/>
</g>
<!-- struct3&#45;&gt;struct2 -->
<g id="edge4" class="edge"><title>struct3:z148684896&#45;&gt;struct2:z148684808</title>
<path fill="none" stroke="maroon" d="M901,-630C901,-630 760.042,-656.708 720.948,-664.115"/>
<polygon fill="maroon" stroke="maroon" points="720.174,-660.699 711,-666 721.477,-667.577 720.174,-660.699"/>
</g>
<!-- struct4 -->
<g id="node5" class="node"><title>struct4</title>
<polygon fill="none" stroke="cornflowerblue" points="635.5,-519 635.5,-555 1182.5,-555 1182.5,-519 635.5,-519"/>
<text text-anchor="middle" x="683" y="-533.3" font-family="Times,serif" font-size="14.00">[4] 0x8dcc0a8</text>
<polyline fill="none" stroke="cornflowerblue" points="730.5,-519 730.5,-555 "/>
<text text-anchor="middle" x="768" y="-533.3" font-family="Times,serif" font-size="14.00">0x8dcc0a8</text>
<polyline fill="none" stroke="cornflowerblue" points="805.5,-519 805.5,-555 "/>
<text text-anchor="middle" x="842.5" y="-533.3" font-family="Times,serif" font-size="14.00">0x8dcc0ac</text>
<polyline fill="none" stroke="cornflowerblue" points="879.5,-519 879.5,-555 "/>
<text text-anchor="middle" x="917.5" y="-533.3" font-family="Times,serif" font-size="14.00">0x8dcc0b0</text>
<polyline fill="none" stroke="cornflowerblue" points="955.5,-519 955.5,-555 "/>
<text text-anchor="middle" x="993.5" y="-533.3" font-family="Times,serif" font-size="14.00">0x8dcc0b4</text>
<polyline fill="none" stroke="cornflowerblue" points="1031.5,-519 1031.5,-555 "/>
<text text-anchor="middle" x="1069.5" y="-533.3" font-family="Times,serif" font-size="14.00">0x8dcc0b8</text>
<polyline fill="none" stroke="cornflowerblue" points="1107.5,-519 1107.5,-555 "/>
<text text-anchor="middle" x="1145" y="-533.3" font-family="Times,serif" font-size="14.00">0x8dcc0bc</text>
</g>
<!-- struct3&#45;&gt;struct4 -->
<g id="edge5" class="edge"><title>struct3:z148684892&#45;&gt;struct4:z148684968</title>
<path fill="none" stroke="maroon" d="M825,-592C825,-592 792.938,-571.75 776.906,-561.625"/>
<polygon fill="maroon" stroke="maroon" points="778.324,-558.381 768,-556 774.586,-564.299 778.324,-558.381"/>
</g>
<!-- struct4&#45;&gt;struct3 -->
<g id="edge6" class="edge"><title>struct4:z148684976&#45;&gt;struct3:z148684888</title>
<path fill="none" stroke="maroon" d="M918,-556C918,-556 795.448,-582.106 759.066,-589.856"/>
<polygon fill="maroon" stroke="maroon" points="758.051,-586.493 749,-592 759.51,-593.34 758.051,-586.493"/>
</g>
<!-- struct5 -->
<g id="node6" class="node"><title>struct5</title>
<polygon fill="none" stroke="cornflowerblue" points="645.5,-445 645.5,-481 1188.5,-481 1188.5,-445 645.5,-445"/>
<text text-anchor="middle" x="692" y="-459.3" font-family="Times,serif" font-size="14.00">[5] 0x8dcc0f8</text>
<polyline fill="none" stroke="cornflowerblue" points="738.5,-445 738.5,-481 "/>
<text text-anchor="middle" x="775.5" y="-459.3" font-family="Times,serif" font-size="14.00">0x8dcc0f8</text>
<polyline fill="none" stroke="cornflowerblue" points="812.5,-445 812.5,-481 "/>
<text text-anchor="middle" x="849" y="-459.3" font-family="Times,serif" font-size="14.00">0x8dcc0fc</text>
<polyline fill="none" stroke="cornflowerblue" points="885.5,-445 885.5,-481 "/>
<text text-anchor="middle" x="923.5" y="-459.3" font-family="Times,serif" font-size="14.00">0x8dcc100</text>
<polyline fill="none" stroke="cornflowerblue" points="961.5,-445 961.5,-481 "/>
<text text-anchor="middle" x="999.5" y="-459.3" font-family="Times,serif" font-size="14.00">0x8dcc104</text>
<polyline fill="none" stroke="cornflowerblue" points="1037.5,-445 1037.5,-481 "/>
<text text-anchor="middle" x="1075.5" y="-459.3" font-family="Times,serif" font-size="14.00">0x8dcc108</text>
<polyline fill="none" stroke="cornflowerblue" points="1113.5,-445 1113.5,-481 "/>
<text text-anchor="middle" x="1151" y="-459.3" font-family="Times,serif" font-size="14.00">0x8dcc10c</text>
</g>
<!-- struct4&#45;&gt;struct5 -->
<g id="edge7" class="edge"><title>struct4:z148684972&#45;&gt;struct5:z148685048</title>
<path fill="none" stroke="maroon" d="M842,-518C842,-518 802.324,-496.682 784.036,-486.855"/>
<polygon fill="maroon" stroke="maroon" points="785.466,-483.65 775,-482 782.152,-489.816 785.466,-483.65"/>
</g>
<!-- struct5&#45;&gt;struct4 -->
<g id="edge8" class="edge"><title>struct5:z148685056&#45;&gt;struct4:z148684968</title>
<path fill="none" stroke="maroon" d="M924,-482C924,-482 811.911,-507.867 777.758,-515.748"/>
<polygon fill="maroon" stroke="maroon" points="776.957,-512.341 768,-518 778.531,-519.162 776.957,-512.341"/>
</g>
<!-- struct6 -->
<g id="node7" class="node"><title>struct6</title>
<polygon fill="none" stroke="cornflowerblue" points="647.5,-371 647.5,-407 1196.5,-407 1196.5,-371 647.5,-371"/>
<text text-anchor="middle" x="695" y="-385.3" font-family="Times,serif" font-size="14.00">[6] 0x8dcc148</text>
<polyline fill="none" stroke="cornflowerblue" points="742.5,-371 742.5,-407 "/>
<text text-anchor="middle" x="780.5" y="-385.3" font-family="Times,serif" font-size="14.00">0x8dcc148</text>
<polyline fill="none" stroke="cornflowerblue" points="818.5,-371 818.5,-407 "/>
<text text-anchor="middle" x="856" y="-385.3" font-family="Times,serif" font-size="14.00">0x8dcc14c</text>
<polyline fill="none" stroke="cornflowerblue" points="893.5,-371 893.5,-407 "/>
<text text-anchor="middle" x="931.5" y="-385.3" font-family="Times,serif" font-size="14.00">0x8dcc150</text>
<polyline fill="none" stroke="cornflowerblue" points="969.5,-371 969.5,-407 "/>
<text text-anchor="middle" x="1007.5" y="-385.3" font-family="Times,serif" font-size="14.00">0x8dcc154</text>
<polyline fill="none" stroke="cornflowerblue" points="1045.5,-371 1045.5,-407 "/>
<text text-anchor="middle" x="1083.5" y="-385.3" font-family="Times,serif" font-size="14.00">0x8dcc158</text>
<polyline fill="none" stroke="cornflowerblue" points="1121.5,-371 1121.5,-407 "/>
<text text-anchor="middle" x="1159" y="-385.3" font-family="Times,serif" font-size="14.00">0x8dcc15c</text>
</g>
<!-- struct5&#45;&gt;struct6 -->
<g id="edge9" class="edge"><title>struct5:z148685052&#45;&gt;struct6:z148685128</title>
<path fill="none" stroke="maroon" d="M849,-444C849,-444 807.724,-422.465 789.021,-412.706"/>
<polygon fill="maroon" stroke="maroon" points="790.485,-409.523 780,-408 787.247,-415.729 790.485,-409.523"/>
</g>
<!-- struct6&#45;&gt;struct5 -->
<g id="edge10" class="edge"><title>struct6:z148685136&#45;&gt;struct5:z148685048</title>
<path fill="none" stroke="maroon" d="M932,-408C932,-408 819.192,-433.867 784.821,-441.748"/>
<polygon fill="maroon" stroke="maroon" points="783.965,-438.353 775,-444 785.529,-445.176 783.965,-438.353"/>
</g>
<!-- struct7 -->
<g id="node8" class="node"><title>struct7</title>
<polygon fill="none" stroke="cornflowerblue" points="650.5,-297 650.5,-333 1195.5,-333 1195.5,-297 650.5,-297"/>
<text text-anchor="middle" x="698" y="-311.3" font-family="Times,serif" font-size="14.00">[7] 0x8dcc198</text>
<polyline fill="none" stroke="cornflowerblue" points="745.5,-297 745.5,-333 "/>
<text text-anchor="middle" x="783.5" y="-311.3" font-family="Times,serif" font-size="14.00">0x8dcc198</text>
<polyline fill="none" stroke="cornflowerblue" points="821.5,-297 821.5,-333 "/>
<text text-anchor="middle" x="859" y="-311.3" font-family="Times,serif" font-size="14.00">0x8dcc19c</text>
<polyline fill="none" stroke="cornflowerblue" points="896.5,-297 896.5,-333 "/>
<text text-anchor="middle" x="934" y="-311.3" font-family="Times,serif" font-size="14.00">0x8dcc1a0</text>
<polyline fill="none" stroke="cornflowerblue" points="971.5,-297 971.5,-333 "/>
<text text-anchor="middle" x="1009" y="-311.3" font-family="Times,serif" font-size="14.00">0x8dcc1a4</text>
<polyline fill="none" stroke="cornflowerblue" points="1046.5,-297 1046.5,-333 "/>
<text text-anchor="middle" x="1084" y="-311.3" font-family="Times,serif" font-size="14.00">0x8dcc1a8</text>
<polyline fill="none" stroke="cornflowerblue" points="1121.5,-297 1121.5,-333 "/>
<text text-anchor="middle" x="1158.5" y="-311.3" font-family="Times,serif" font-size="14.00">0x8dcc1ac</text>
</g>
<!-- struct6&#45;&gt;struct7 -->
<g id="edge11" class="edge"><title>struct6:z148685132&#45;&gt;struct7:z148685208</title>
<path fill="none" stroke="maroon" d="M856,-370C856,-370 811.889,-348.247 792.246,-338.559"/>
<polygon fill="maroon" stroke="maroon" points="793.517,-335.284 783,-334 790.421,-341.562 793.517,-335.284"/>
</g>
<!-- struct7&#45;&gt;struct6 -->
<g id="edge12" class="edge"><title>struct7:z148685216&#45;&gt;struct6:z148685128</title>
<path fill="none" stroke="maroon" d="M934,-334C934,-334 824.365,-359.629 790.104,-367.638"/>
<polygon fill="maroon" stroke="maroon" points="788.941,-364.316 780,-370 790.534,-371.132 788.941,-364.316"/>
</g>
<!-- struct8 -->
<g id="node9" class="node"><title>struct8</title>
<polygon fill="none" stroke="cornflowerblue" points="652.5,-223 652.5,-259 1191.5,-259 1191.5,-223 652.5,-223"/>
<text text-anchor="middle" x="700" y="-237.3" font-family="Times,serif" font-size="14.00">[8] 0x8dcc1e8</text>
<polyline fill="none" stroke="cornflowerblue" points="747.5,-223 747.5,-259 "/>
<text text-anchor="middle" x="785" y="-237.3" font-family="Times,serif" font-size="14.00">0x8dcc1e8</text>
<polyline fill="none" stroke="cornflowerblue" points="822.5,-223 822.5,-259 "/>
<text text-anchor="middle" x="859.5" y="-237.3" font-family="Times,serif" font-size="14.00">0x8dcc1ec</text>
<polyline fill="none" stroke="cornflowerblue" points="896.5,-223 896.5,-259 "/>
<text text-anchor="middle" x="933.5" y="-237.3" font-family="Times,serif" font-size="14.00">0x8dcc1f0</text>
<polyline fill="none" stroke="cornflowerblue" points="970.5,-223 970.5,-259 "/>
<text text-anchor="middle" x="1007.5" y="-237.3" font-family="Times,serif" font-size="14.00">0x8dcc1f4</text>
<polyline fill="none" stroke="cornflowerblue" points="1044.5,-223 1044.5,-259 "/>
<text text-anchor="middle" x="1081.5" y="-237.3" font-family="Times,serif" font-size="14.00">0x8dcc1f8</text>
<polyline fill="none" stroke="cornflowerblue" points="1118.5,-223 1118.5,-259 "/>
<text text-anchor="middle" x="1155" y="-237.3" font-family="Times,serif" font-size="14.00">0x8dcc1fc</text>
</g>
<!-- struct7&#45;&gt;struct8 -->
<g id="edge13" class="edge"><title>struct7:z148685212&#45;&gt;struct8:z148685288</title>
<path fill="none" stroke="maroon" d="M859,-296C859,-296 813.834,-274.027 794.074,-264.414"/>
<polygon fill="maroon" stroke="maroon" points="795.524,-261.227 785,-260 792.461,-267.522 795.524,-261.227"/>
</g>
<!-- struct8&#45;&gt;struct7 -->
<g id="edge14" class="edge"><title>struct8:z148685296&#45;&gt;struct7:z148685208</title>
<path fill="none" stroke="maroon" d="M934,-260C934,-260 826.501,-285.629 792.908,-293.638"/>
<polygon fill="maroon" stroke="maroon" points="791.916,-290.276 783,-296 793.539,-297.085 791.916,-290.276"/>
</g>
<!-- struct9 -->
<g id="node10" class="node"><title>struct9</title>
<polygon fill="none" stroke="cornflowerblue" points="652.5,-149 652.5,-185 1201.5,-185 1201.5,-149 652.5,-149"/>
<text text-anchor="middle" x="700" y="-163.3" font-family="Times,serif" font-size="14.00">[9] 0x8dcc238</text>
<polyline fill="none" stroke="cornflowerblue" points="747.5,-149 747.5,-185 "/>
<text text-anchor="middle" x="785.5" y="-163.3" font-family="Times,serif" font-size="14.00">0x8dcc238</text>
<polyline fill="none" stroke="cornflowerblue" points="823.5,-149 823.5,-185 "/>
<text text-anchor="middle" x="861" y="-163.3" font-family="Times,serif" font-size="14.00">0x8dcc23c</text>
<polyline fill="none" stroke="cornflowerblue" points="898.5,-149 898.5,-185 "/>
<text text-anchor="middle" x="936.5" y="-163.3" font-family="Times,serif" font-size="14.00">0x8dcc240</text>
<polyline fill="none" stroke="cornflowerblue" points="974.5,-149 974.5,-185 "/>
<text text-anchor="middle" x="1012.5" y="-163.3" font-family="Times,serif" font-size="14.00">0x8dcc244</text>
<polyline fill="none" stroke="cornflowerblue" points="1050.5,-149 1050.5,-185 "/>
<text text-anchor="middle" x="1088.5" y="-163.3" font-family="Times,serif" font-size="14.00">0x8dcc248</text>
<polyline fill="none" stroke="cornflowerblue" points="1126.5,-149 1126.5,-185 "/>
<text text-anchor="middle" x="1164" y="-163.3" font-family="Times,serif" font-size="14.00">0x8dcc24c</text>
</g>
<!-- struct8&#45;&gt;struct9 -->
<g id="edge15" class="edge"><title>struct8:z148685292&#45;&gt;struct9:z148685368</title>
<path fill="none" stroke="maroon" d="M859,-222C859,-222 813.834,-200.027 794.074,-190.414"/>
<polygon fill="maroon" stroke="maroon" points="795.524,-187.227 785,-186 792.461,-193.522 795.524,-187.227"/>
</g>
<!-- struct9&#45;&gt;struct8 -->
<g id="edge16" class="edge"><title>struct9:z148685376&#45;&gt;struct8:z148685288</title>
<path fill="none" stroke="maroon" d="M937,-186C937,-186 828.789,-211.629 794.973,-219.638"/>
<polygon fill="maroon" stroke="maroon" points="793.924,-216.289 785,-222 795.537,-223.101 793.924,-216.289"/>
</g>
<!-- struct9&#45;&gt;struct10 -->
<g id="edge17" class="edge"><title>struct9:z148685372&#45;&gt;struct10:z148685448</title>
<path fill="none" stroke="maroon" d="M861,-148C861,-148 760.137,-122.608 727.829,-114.474"/>
<polygon fill="maroon" stroke="maroon" points="728.552,-111.047 718,-112 726.843,-117.835 728.552,-111.047"/>
</g>
<!-- struct10&#45;&gt;struct11 -->
<g id="edge19" class="edge"><title>struct10:z148685452&#45;&gt;struct11:z148685528</title>
<path fill="none" stroke="maroon" d="M793,-74C793,-74 620.74,-46.5604 577.003,-39.5933"/>
<polygon fill="maroon" stroke="maroon" points="577.426,-36.1167 567,-38 576.325,-43.0296 577.426,-36.1167"/>
</g>
<!-- struct10&#45;&gt;struct9 -->
<g id="edge18" class="edge"><title>struct10:z148685456&#45;&gt;struct9:z148685368</title>
<path fill="none" stroke="maroon" d="M869,-112C869,-112 816.181,-134.637 794.31,-144.01"/>
<polygon fill="maroon" stroke="maroon" points="792.813,-140.844 785,-148 795.57,-147.278 792.813,-140.844"/>
</g>
</g>
</svg>
